<svg width="16" height="17" viewBox="0 0 16 17" fill="none" xmlns="http://www.w3.org/2000/svg">
<path d="M16 8.72355C16 13.1418 12.4183 16.7236 7.99999 16.7236C3.58172 16.7236 0 13.1418 0 8.72355C0 4.30525 3.58172 0.723511 7.99999 0.723511C12.4183 0.723511 16 4.30525 16 8.72355Z" fill="url(#paint0_linear_2339_15418)"/>
<path fill-rule="evenodd" clip-rule="evenodd" d="M8.35208 4.49618C8.31331 4.47502 8.53221 4.58477 8.91618 4.93259C9.73904 5.67799 9.61679 6.88597 9.14982 6.90104C8.31453 6.92799 8.31187 6.81157 7.4143 6.9462C7.24495 6.97161 6.71424 6.82971 6.07233 7.39138C5.53337 7.86295 5.55009 8.93019 5.84345 9.66093C5.96625 9.96686 6.13754 10.2138 6.33686 10.3334C7.00908 10.7367 7.08188 10.3662 7.85302 10.4947C7.90335 10.5031 8.63055 10.5485 8.69819 10.5528C8.95808 10.569 9.28011 10.3992 9.49822 10.4044C10.5169 10.4286 10.9147 9.76335 11.2595 8.79141C11.4028 8.38782 11.3674 8.38226 11.4144 7.95913C11.4411 7.71899 11.5822 7.72483 11.4789 7.50106C11.2909 7.09365 11.4564 6.84308 11.2079 6.34618C11.0278 5.98593 11.0212 5.39009 10.8918 5.26874C10.0461 4.47591 9.6522 4.42668 9.52402 4.41064C9.15388 4.36437 8.48917 4.39855 8.35208 4.49618Z" fill="black"/>
<path fill-rule="evenodd" clip-rule="evenodd" d="M7.03376 10.3469C6.48662 9.99198 6.15523 9.479 6.23881 8.70155C6.31209 8.02 6.78684 7.53822 7.45071 7.43422C7.98937 7.34984 8.23829 7.44326 8.88683 7.26839C9.59929 7.07626 9.78356 6.46421 9.745 5.92946C9.70047 5.31191 9.32259 4.70653 8.55477 4.50448C8.24388 4.11197 7.20993 4.01613 6.96846 4.32172C6.87475 4.44033 5.9617 4.87441 5.58148 5.38794C5.46129 5.55026 5.19175 5.91433 5.04625 7.85535C4.85539 10.4015 6.81765 10.317 7.03376 10.3469Z" fill="white"/>
<path d="M9.48842 12.2526C9.55167 11.9999 9.8767 11.1867 10.1142 10.7459C9.90139 10.8349 6.85664 11.6734 5.28304 10.2375C4.51495 9.53659 4.48433 8.65992 4.4595 8.15915C3.98114 8.16333 3.72804 8.26693 3.54842 8.30207C3.36178 8.33857 3.27521 8.27714 3.19835 8.0892C3.12092 7.89985 3.0127 7.57529 2.94067 7.38739C2.89637 7.27183 2.89934 7.21077 2.93782 7.17769C2.98607 7.13622 3.06864 7.19475 3.19914 7.23758C3.59672 7.36801 3.92524 7.41888 4.49524 7.37339C4.5915 6.45902 4.6176 6.02131 4.62371 5.90601C4.62796 5.82575 4.62701 5.70801 4.5954 5.57098C4.56564 5.44197 4.51602 5.30764 4.48472 5.2411C4.44989 5.16707 4.43871 5.12044 4.46501 5.09166C4.49623 5.05753 4.54112 5.05903 4.64769 5.11648C4.84382 5.22217 5.07495 5.42659 5.22581 5.59211C5.27083 5.64152 5.31113 5.69794 5.32191 5.78043C5.33214 5.85865 5.31207 5.92507 5.29846 6.02799C5.25132 6.38439 5.13384 7.16621 5.10912 7.91614C5.09145 8.45238 5.24879 9.15803 5.63043 9.61411C6.07604 10.1466 6.72947 10.323 7.53619 10.4121C8.45397 10.5136 9.73252 10.3004 10.4676 9.89848C10.6704 9.38144 11.1221 8.43017 11.0582 7.23543C10.976 5.6977 10.1133 4.78658 8.96068 4.57468C7.9546 4.38972 6.86574 4.67465 6.37472 4.88977C5.83025 5.1283 5.64159 5.30292 5.48144 5.32101C5.28865 5.3428 4.80149 5.04264 4.65351 4.86437C4.61928 4.82316 4.60076 4.78299 4.61624 4.75111C4.63354 4.71544 4.66213 4.71366 4.75622 4.71729C4.8543 4.72105 4.9917 4.7101 5.11766 4.68477C5.30199 4.64768 5.50221 4.57379 5.5639 4.54558C6.15714 4.2742 7.58842 3.70235 9.093 4.0019C10.9781 4.37725 11.5967 5.88368 11.6726 7.31291C12.1187 7.32916 12.4519 7.19044 12.6837 7.19196C12.9149 7.19347 12.9713 7.24339 13.0511 7.76493C13.0662 7.86373 13.0844 8.00156 13.0885 8.12289C13.0932 8.26405 13.0967 8.35295 13.041 8.37903C12.9865 8.40458 12.9079 8.35938 12.8086 8.30397C12.6023 8.18894 12.2577 8.0049 11.7005 8.02059C11.6477 8.51146 11.5445 9.01722 11.3439 9.61654C11.8111 9.40868 12.078 9.30949 12.3465 9.29446C12.5783 9.28149 12.6824 9.42264 12.7955 9.70084C12.8717 9.88821 12.931 10.1014 12.9521 10.2406C12.9677 10.3438 12.965 10.384 12.9142 10.4139C12.8492 10.4523 12.7477 10.3763 12.5848 10.3288C12.0206 10.1643 11.418 10.2589 11.0308 10.5111C10.3865 11.7114 10.1889 12.7272 10.0742 13.2121C10.0293 13.402 10.0256 13.4764 9.97443 13.5126C9.92485 13.5477 9.78925 13.5224 9.62793 13.4955C9.54315 13.4813 9.4029 13.4484 9.32772 13.422C9.25662 13.3971 9.19306 13.3686 9.15526 13.3211C9.11985 13.2766 9.11284 13.2231 9.09185 13.1692C8.89512 12.6634 8.7955 11.8477 7.58735 11.4853C7.38872 11.4257 7.19436 11.4543 7.35181 11.3175C7.65371 11.0551 8.98466 11.3483 9.48842 12.2526Z" fill="black"/>
<path d="M7.97539 6.56417C7.6533 6.56456 7.38945 6.30188 7.38867 5.97978C7.3879 5.65652 7.64922 5.39287 7.97151 5.39209C8.29671 5.39112 8.56094 5.65419 8.56056 5.97862C8.56036 6.3011 8.29768 6.56379 7.9752 6.56437L7.97539 6.56417Z" fill="black"/>
<path d="M7.97493 8.34058C8.3079 8.3398 8.57583 8.60617 8.57583 8.93856C8.57583 9.26997 8.30693 9.53945 7.9761 9.53906C7.64721 9.53868 7.37812 9.27056 7.37696 8.94205C7.37579 8.60967 7.64275 8.34135 7.97493 8.34058Z" fill="white"/>
<path d="M1.93112 7.74193L0.742188 7.2876L0.834648 7.04359L1.77313 6.87088L1.73733 6.9705L1.14113 6.23477L1.23294 5.99247L2.42187 6.4468L2.32877 6.69252L1.46554 6.35874L1.49998 6.31916L1.97476 6.91863L1.90945 7.09097L1.15341 7.23377L1.15259 7.18462L2.01905 7.50987L1.93112 7.74193Z" fill="black"/>
<path d="M2.85372 5.75022C2.78957 5.85035 2.71509 5.92182 2.63027 5.96464C2.54802 6.0069 2.45858 6.0225 2.36606 6.01189C2.27254 6.00285 2.18166 5.96903 2.09241 5.912L1.43945 5.49475L1.5878 5.26321L2.24702 5.68446C2.32844 5.73649 2.40254 5.75518 2.46932 5.74051C2.53452 5.72485 2.59096 5.68154 2.63607 5.61114C2.68218 5.53918 2.69691 5.47141 2.68382 5.40572C2.66917 5.33903 2.62113 5.27967 2.53971 5.22764L1.88049 4.80639L2.02984 4.57329L2.6828 4.99054C2.77105 5.04913 2.83988 5.11737 2.88829 5.19682C2.9367 5.27626 2.95843 5.36291 2.95604 5.4562C2.95265 5.55105 2.91888 5.64853 2.85372 5.75022Z" fill="black"/>
<path d="M3.42394 4.8935L2.91657 3.59669L3.14985 3.38588L4.39433 4.01659L4.16381 4.2249L3.90079 4.08645L3.53361 4.41825L3.64756 4.69142L3.42394 4.8935ZM3.426 4.20205L3.69655 3.95756L3.23184 3.71802L3.426 4.20205Z" fill="black"/>
<path d="M4.99655 3.69704C4.88043 3.76693 4.7643 3.80431 4.64815 3.8092C4.53296 3.81569 4.42506 3.78744 4.32415 3.73115C4.22228 3.67326 4.13726 3.58573 4.06655 3.46793C4.0159 3.38355 3.98339 3.29693 3.96902 3.20805C3.95465 3.11918 3.9581 3.03475 3.97906 2.95063C4.00001 2.8665 4.03815 2.78937 4.09253 2.71763C4.1469 2.6459 4.21624 2.58466 4.30213 2.53297C4.39121 2.47936 4.47425 2.44455 4.55125 2.42855C4.62761 2.41509 4.7024 2.41343 4.77655 2.42514L4.77448 2.68861C4.72196 2.67688 4.66945 2.67597 4.61632 2.68845C4.56222 2.69933 4.50814 2.72105 4.45565 2.75264C4.39998 2.78615 4.35545 2.82378 4.32047 2.86651C4.28708 2.90828 4.26324 2.95513 4.25117 3.00357C4.24006 3.0536 4.23818 3.10457 4.24808 3.15713C4.25797 3.20969 4.27964 3.26382 4.31214 3.31795C4.35609 3.39118 4.40863 3.44625 4.4688 3.48155C4.53055 3.5159 4.5958 3.53081 4.66549 3.52788C4.73582 3.52239 4.80963 3.49747 4.8828 3.45343C4.93529 3.42184 4.98141 3.38325 5.02275 3.3367C5.0625 3.2911 5.09493 3.23691 5.11844 3.17508L5.3451 3.30739C5.31746 3.38037 5.27454 3.44955 5.21888 3.51555C5.16323 3.58155 5.0888 3.64152 4.99655 3.69704Z" fill="black"/>
<path d="M6.08362 3.20444C5.97514 3.24654 5.87518 3.25982 5.78372 3.24431C5.69461 3.22984 5.61531 3.18998 5.5488 3.1275C5.4806 3.06568 5.42885 2.98571 5.39184 2.88824L5.12109 2.17517L5.37194 2.07783L5.64528 2.79773C5.67904 2.88665 5.7264 2.94479 5.78734 2.97215C5.84764 2.9978 5.9171 2.99635 5.99337 2.96675C6.07133 2.9365 6.12221 2.89125 6.15005 2.8314C6.17724 2.76984 6.17395 2.6946 6.14019 2.60568L5.86685 1.88577L6.11938 1.78777L6.39013 2.50084C6.42544 2.59896 6.43991 2.69341 6.43184 2.78483C6.42377 2.87625 6.39056 2.9578 6.33456 3.03054C6.27687 3.10394 6.19379 3.16169 6.08362 3.20444Z" fill="black"/>
<path d="M6.88983 2.97382L6.67578 1.73511L7.14342 1.65074C7.23111 1.63493 7.31295 1.63658 7.3855 1.65634C7.45978 1.67579 7.52102 1.71218 7.57066 1.76344C7.6206 1.81648 7.65205 1.88562 7.66642 1.96879C7.6811 2.05373 7.67472 2.12969 7.65073 2.19606C7.62472 2.26097 7.57937 2.3166 7.5158 2.35909C7.45253 2.40335 7.37276 2.43416 7.27476 2.45184L7.06845 2.48906L7.14428 2.92792L6.88983 2.97382ZM7.03023 2.26786L7.2331 2.23126C7.29843 2.21947 7.34756 2.19601 7.3808 2.16265C7.41201 2.12782 7.42328 2.08017 7.41288 2.02C7.40249 1.95983 7.37563 1.91724 7.33291 1.89575C7.28989 1.87249 7.23758 1.86733 7.17397 1.8788L6.96937 1.91571L7.03023 2.26786Z" fill="black"/>
<path d="M8.47229 2.90146C8.36088 2.88566 8.27008 2.84924 8.1999 2.79218C8.1312 2.73715 8.08263 2.66503 8.05542 2.57964C8.02648 2.494 8.0199 2.40066 8.03394 2.29937L8.13672 1.55835L8.39436 1.59487L8.2906 2.34299C8.27778 2.43539 8.2908 2.50791 8.32965 2.56052C8.36875 2.61136 8.42821 2.64335 8.50655 2.65445C8.58663 2.6658 8.65076 2.65133 8.70218 2.61332C8.75385 2.57354 8.78609 2.50744 8.79891 2.41503L8.90267 1.66691L9.16205 1.70367L9.05927 2.44469C9.04348 2.54573 9.01176 2.63365 8.96238 2.70818C8.91299 2.78272 8.84692 2.83677 8.76565 2.87237C8.68265 2.90771 8.58544 2.91749 8.47229 2.90146Z" fill="black"/>
<path d="M9.29513 2.94974L9.73047 1.74988L9.97688 1.841L10.2207 2.81573L10.5037 2.03581L10.7484 2.12631L10.3131 3.32617L10.0666 3.23505L9.82716 2.24833L9.53984 3.04023L9.29513 2.94974Z" fill="black"/>
<path d="M11.0973 3.75413C10.9806 3.68545 10.8923 3.60123 10.8325 3.50145C10.7717 3.40328 10.7449 3.29491 10.746 3.17929C10.7481 3.06206 10.7842 2.94548 10.8536 2.82699C10.9034 2.74213 10.9638 2.67214 11.0348 2.61702C11.1059 2.5619 11.1816 2.52458 11.2653 2.50278C11.3491 2.48099 11.4349 2.47765 11.5238 2.49116C11.6127 2.50468 11.6995 2.53636 11.7859 2.58717C11.8755 2.63985 11.9457 2.69621 11.9965 2.75626C12.0448 2.81697 12.082 2.88192 12.1072 2.95271L11.8752 3.07683C11.8604 3.02505 11.8361 2.97846 11.7998 2.93771C11.7644 2.89535 11.7195 2.85819 11.6667 2.82714C11.6107 2.79421 11.5564 2.77306 11.5023 2.76273C11.4497 2.75334 11.3972 2.75478 11.349 2.76732C11.2998 2.78147 11.2542 2.80419 11.2129 2.83801C11.1715 2.87184 11.1344 2.91677 11.1025 2.97121C11.0593 3.04486 11.0362 3.11737 11.034 3.18714C11.0334 3.25786 11.0515 3.32235 11.0874 3.38221C11.1258 3.44142 11.1829 3.4944 11.2565 3.53767C11.3093 3.56872 11.3652 3.59082 11.4258 3.60491C11.4847 3.61806 11.5477 3.62067 11.6132 3.61178L11.6055 3.8743C11.5283 3.88488 11.4472 3.88022 11.3627 3.86284C11.2783 3.84546 11.1901 3.80869 11.0973 3.75413Z" fill="black"/>
<path d="M11.8409 4.23938L12.521 3.43794L12.2516 3.20919L12.4141 3.0177L13.163 3.65337L13.0005 3.84486L12.731 3.61612L12.0508 4.41756L11.8409 4.23938Z" fill="black"/>
<path d="M12.7447 5.18889C12.6702 5.09606 12.6261 5.00259 12.6126 4.90849C12.5988 4.817 12.6125 4.7272 12.6522 4.64288C12.6907 4.55711 12.7519 4.48175 12.8345 4.41537L13.4395 3.92969L13.6119 4.14436L13.0011 4.6347C12.9257 4.69526 12.8843 4.75954 12.8768 4.82754C12.8709 4.89437 12.8939 4.96172 12.9464 5.027C12.9999 5.09372 13.0596 5.12934 13.1261 5.13794C13.1941 5.14537 13.2658 5.1188 13.3413 5.05824L13.952 4.5679L14.1256 4.78402L13.5206 5.2697C13.4368 5.33464 13.35 5.37808 13.2591 5.39858C13.1682 5.41908 13.079 5.41198 12.9912 5.37989C12.9022 5.34636 12.8204 5.28317 12.7447 5.18889Z" fill="black"/>
<path d="M13.2428 5.82565L14.3945 5.23254L14.6316 5.68863C14.6751 5.7723 14.6994 5.85126 14.7039 5.92801C14.7075 6.00311 14.6935 6.07267 14.658 6.13259C14.6232 6.19416 14.5692 6.24276 14.4968 6.28004C14.4409 6.30885 14.3855 6.32278 14.33 6.32433C14.2753 6.3234 14.2229 6.31086 14.1745 6.28589C14.126 6.26092 14.0816 6.22764 14.042 6.18356L13.7254 6.75422L13.5753 6.46548L13.8689 5.96284L13.8066 5.84308L13.369 6.06846L13.2428 5.82565ZM14.0024 5.74225L14.0962 5.92271C14.1287 5.98506 14.1674 6.0275 14.2125 6.05003C14.2551 6.07177 14.3039 6.06949 14.3566 6.04237C14.4092 6.01526 14.4419 5.97767 14.4511 5.9313C14.4604 5.88493 14.4488 5.83058 14.4164 5.76824L14.3184 5.57957L14.0024 5.74225Z" fill="black"/>
<path d="M13.7629 6.95866L14.9707 6.56006L15.2565 7.37045L15.0339 7.44391L14.8364 6.88391L14.5776 6.96932L14.7453 7.44473L14.5399 7.5125L14.3723 7.03709L14.0755 7.13503L14.2754 7.7018L14.0511 7.77582L13.7629 6.95866Z" fill="black"/>
<path d="M1.16554 10.2995C1.14793 10.2377 1.14467 10.1793 1.15575 10.1244C1.16723 10.0708 1.18931 10.0231 1.22455 9.98519C1.2594 9.94587 1.30367 9.91876 1.35873 9.90346C1.39728 9.89276 1.43542 9.89106 1.47315 9.89836C1.51226 9.90529 1.55058 9.91984 1.58711 9.94379C1.62364 9.96773 1.65761 9.99832 1.6894 10.0369C1.70714 10.0053 1.72644 9.9792 1.74416 9.95798C1.76188 9.93675 1.78117 9.92102 1.80124 9.90803C1.82131 9.89505 1.84255 9.88619 1.86733 9.8793C1.91276 9.86669 1.95758 9.86758 2.00179 9.88198C2.04423 9.89539 2.08391 9.91994 2.11669 9.95679C2.15045 9.99187 2.17438 10.0341 2.18925 10.0863C2.20373 10.1372 2.20739 10.1865 2.19947 10.2317C2.19056 10.2787 2.17379 10.3189 2.14465 10.3522C2.11728 10.3865 2.08088 10.4099 2.03545 10.4225C1.9859 10.4363 1.93715 10.432 1.88646 10.4105C1.83715 10.3887 1.78628 10.3509 1.73485 10.2955L1.60875 10.5099C1.64883 10.5255 1.68989 10.5392 1.73569 10.5488C1.7801 10.5587 1.83238 10.5649 1.89293 10.5688L1.87559 10.7426C1.83942 10.7408 1.79932 10.7356 1.75667 10.7267C1.7154 10.7174 1.67335 10.7054 1.63268 10.693C1.59161 10.6792 1.55467 10.6642 1.52186 10.6482L1.36109 10.9077L1.29692 10.6825L1.36845 10.5633C1.31915 10.531 1.27693 10.4924 1.24142 10.4459C1.2059 10.3995 1.18002 10.3503 1.16554 10.2995ZM1.33366 10.2691C1.34227 10.2993 1.35815 10.329 1.37876 10.3544C1.39976 10.3812 1.42548 10.4037 1.45631 10.4233L1.60547 10.1699C1.57898 10.1343 1.54796 10.1088 1.51554 10.0941C1.48313 10.0794 1.44971 10.0768 1.41805 10.0856C1.3795 10.0963 1.35313 10.1185 1.33716 10.151C1.32159 10.185 1.32075 10.2238 1.33366 10.2691ZM1.80304 10.1699C1.83169 10.2079 1.85996 10.2341 1.88786 10.2486C1.91752 10.2641 1.94504 10.2668 1.97257 10.2592C2.00286 10.2507 2.02352 10.2346 2.03594 10.2104C2.04836 10.1862 2.05095 10.1588 2.04195 10.1272C2.03334 10.097 2.01666 10.075 1.99427 10.059C1.9709 10.0447 1.94476 10.0416 1.91585 10.0496C1.89382 10.0557 1.87474 10.067 1.85663 10.0868C1.8395 10.1049 1.82098 10.1338 1.80304 10.1699Z" fill="black"/>
<path d="M1.80391 12.1603L2.53125 11.3523L2.64913 11.5484L2.13556 12.0865L2.85732 11.8948L2.97137 12.0846L2.4647 12.6341L3.17957 12.4309L3.29362 12.6207L2.2425 12.89L2.12845 12.7003L2.63284 12.1556L1.91719 12.3488L1.80391 12.1603Z" fill="black"/>
<path d="M2.74083 13.539L3.49219 12.8173L3.98607 13.3314L3.84761 13.4644L3.50632 13.1091L3.34532 13.2638L3.63505 13.5654L3.50732 13.6881L3.21758 13.3865L3.03296 13.5638L3.37838 13.9234L3.23884 14.0574L2.74083 13.539Z" fill="black"/>
<path d="M3.6554 14.4149L4.26953 13.5736L4.44728 13.7036L3.95159 14.3826L4.29868 14.6365L4.18024 14.7987L3.6554 14.4149Z" fill="black"/>
<path d="M4.61591 15.0537L5.08984 14.1305L5.28393 14.2319L4.9014 14.977L5.28038 15.1751L5.18898 15.3531L4.61591 15.0537Z" fill="black"/>
<path d="M5.67171 15.5104L5.99805 14.5468L6.1956 14.6151L6.40584 15.3875L6.61796 14.7612L6.81415 14.829L6.48781 15.7927L6.29026 15.7244L6.08328 14.9423L5.8679 15.5783L5.67171 15.5104Z" fill="black"/>
<path d="M7.11959 15.8538L7.24414 14.8491L7.90844 14.9362L7.88549 15.1213L7.42644 15.0612L7.39975 15.2765L7.78946 15.3275L7.76828 15.4983L7.37858 15.4472L7.34798 15.6941L7.81257 15.755L7.78944 15.9416L7.11959 15.8538Z" fill="black"/>
<path d="M8.77535 15.8949C8.70517 15.9071 8.63448 15.9078 8.56352 15.8982C8.49256 15.8887 8.4312 15.8687 8.37758 15.8357L8.44913 15.6612C8.4733 15.6789 8.50251 15.6928 8.53675 15.7029C8.56961 15.7133 8.60476 15.7203 8.64195 15.7226C8.67776 15.7251 8.71287 15.7234 8.74727 15.7174C8.79956 15.7083 8.84057 15.6909 8.87053 15.6667C8.89888 15.6414 8.91068 15.6101 8.90479 15.5747C8.89984 15.5449 8.88483 15.5227 8.85814 15.5069C8.83145 15.4911 8.78573 15.4801 8.72075 15.4724L8.62844 15.4622C8.52764 15.452 8.4511 15.4259 8.40043 15.3851C8.35 15.3457 8.31833 15.2914 8.30702 15.2233C8.29971 15.1793 8.30251 15.1365 8.31428 15.0965C8.32604 15.0565 8.34563 15.021 8.37394 14.9869C8.40111 14.9544 8.43634 14.9278 8.47778 14.9046C8.51946 14.8827 8.56644 14.8672 8.61873 14.8582C8.68891 14.8459 8.75523 14.8446 8.81931 14.8554C8.88339 14.8661 8.93764 14.8859 8.98068 14.9149L8.90568 15.0855C8.88473 15.0702 8.85988 15.057 8.83162 15.0488C8.80312 15.0392 8.77371 15.0326 8.74226 15.0308C8.71057 15.0275 8.67822 15.0288 8.64795 15.0341C8.61492 15.0398 8.58697 15.0505 8.56361 15.0633C8.54049 15.0776 8.52335 15.0937 8.51242 15.1131C8.50011 15.1328 8.49676 15.1552 8.50076 15.1794C8.50383 15.1978 8.51192 15.2124 8.52368 15.2235C8.53543 15.2346 8.55544 15.2443 8.58071 15.2516C8.60599 15.2588 8.6409 15.2644 8.6843 15.27L8.77983 15.2826C8.87949 15.2944 8.95442 15.3193 9.00576 15.3557C9.05572 15.3922 9.08739 15.4465 9.09917 15.5175C9.1093 15.5785 9.10335 15.6364 9.08086 15.6885C9.05836 15.7406 9.02045 15.7851 8.96965 15.8203C8.91771 15.857 8.85378 15.8813 8.77535 15.8949Z" fill="black"/>
<path d="M10.0233 15.6471C9.95406 15.6721 9.88231 15.6855 9.80858 15.6887C9.73484 15.692 9.66911 15.6831 9.60906 15.6597L9.65247 15.4718C9.68001 15.4852 9.71204 15.4939 9.74854 15.4978C9.78368 15.5022 9.82059 15.5029 9.85878 15.4984C9.89561 15.4945 9.931 15.4864 9.96497 15.4742C10.0166 15.4556 10.0554 15.4308 10.0818 15.4011C10.1063 15.3706 10.113 15.3371 10.1011 15.3026C10.0911 15.2737 10.0721 15.2541 10.0423 15.2431C10.0125 15.2321 9.96418 15.2293 9.89683 15.2334L9.80129 15.2399C9.69711 15.2479 9.61493 15.2356 9.55656 15.2038C9.49868 15.1734 9.45735 15.1247 9.43441 15.0585C9.4196 15.0157 9.41525 14.9723 9.42048 14.9301C9.42572 14.8878 9.43966 14.8487 9.4627 14.8094C9.48487 14.7719 9.51622 14.7389 9.55443 14.7081C9.59313 14.6786 9.63828 14.6546 9.68991 14.636C9.75919 14.6111 9.82639 14.5978 9.89333 14.597C9.96027 14.5961 10.0187 14.6061 10.0674 14.6274L10.0198 14.8121C9.99593 14.8005 9.96846 14.7918 9.93835 14.7887C9.90776 14.7842 9.87676 14.7829 9.84449 14.7868C9.81173 14.7892 9.77905 14.7964 9.74917 14.8071C9.71656 14.8188 9.68994 14.8346 9.66836 14.8517C9.64725 14.8702 9.63253 14.8894 9.62468 14.9109C9.61547 14.9328 9.61585 14.9559 9.62397 14.9794C9.63019 14.9973 9.64088 15.0106 9.65469 15.0195C9.6685 15.0285 9.69046 15.0346 9.71738 15.0373C9.7443 15.04 9.78072 15.0394 9.82578 15.0371L9.925 15.0324C10.0283 15.0263 10.1086 15.0377 10.1669 15.0648C10.2239 15.0924 10.2652 15.1412 10.2891 15.2101C10.3096 15.2695 10.3133 15.3287 10.2992 15.3849C10.2851 15.4412 10.254 15.4927 10.2083 15.5371C10.1617 15.5834 10.1008 15.6193 10.0233 15.6471Z" fill="black"/>
<path d="M11.8182 14.8166C11.7272 14.8756 11.6352 14.9087 11.5424 14.9158C11.4504 14.9242 11.3632 14.9045 11.2809 14.8622C11.1978 14.8187 11.1273 14.751 11.0675 14.6587C11.0246 14.5925 10.9962 14.5241 10.9822 14.4534C10.9683 14.3827 10.9688 14.315 10.9832 14.2472C10.9977 14.1793 11.0261 14.1165 11.0677 14.0576C11.1092 13.9988 11.163 13.9479 11.2304 13.9042C11.3002 13.8588 11.3657 13.8287 11.4269 13.8138C11.4877 13.801 11.5475 13.7976 11.6072 13.8049L11.6128 14.0158C11.5704 14.0078 11.5284 14.0085 11.4862 14.02C11.4432 14.0302 11.4005 14.049 11.3593 14.0757C11.3157 14.1041 11.281 14.1354 11.2542 14.1705C11.2286 14.2049 11.2108 14.243 11.2025 14.2821C11.195 14.3224 11.1949 14.3632 11.2042 14.405C11.2136 14.4468 11.2324 14.4895 11.2599 14.532C11.2971 14.5893 11.3407 14.632 11.3898 14.6586C11.4402 14.6844 11.4928 14.6945 11.5486 14.6903C11.6047 14.6839 11.6631 14.662 11.7205 14.6248C11.7616 14.598 11.7975 14.5659 11.8293 14.5275C11.8599 14.49 11.8843 14.4457 11.9015 14.3956L12.0865 14.4953C12.0664 14.5544 12.034 14.6109 11.9912 14.6653C11.9485 14.7196 11.8905 14.7696 11.8182 14.8166Z" fill="black"/>
<path d="M12.527 14.2671L11.8125 13.5088L11.9728 13.3577L12.5495 13.9698L12.8626 13.6748L13.0004 13.8211L12.527 14.2671Z" fill="black"/>
<path d="M12.6547 12.6227L12.5156 12.7936L13.324 13.4509L13.463 13.28L12.6547 12.6227Z" fill="black"/>
<path d="M13.8079 12.8133L12.9102 12.2897L13.0189 12.1039L13.8349 12.0472L13.2513 11.7068L13.3593 11.5224L14.257 12.046L14.1483 12.2317L13.3234 12.2832L13.9158 12.6288L13.8079 12.8133Z" fill="black"/>
<path d="M13.5871 10.9306L13.5039 11.1301L14.4743 11.4987L14.5575 11.2992L13.5871 10.9306Z" fill="black"/>
<path d="M14.8286 10.3048C14.801 10.4048 14.756 10.487 14.6937 10.5514C14.6328 10.6162 14.5574 10.658 14.4711 10.6807C14.3834 10.703 14.2893 10.7001 14.1871 10.673C14.1139 10.6535 14.0497 10.6232 13.9943 10.5821C13.939 10.5409 13.896 10.4927 13.863 10.4354C13.8299 10.3781 13.8102 10.3155 13.8024 10.2472C13.7946 10.179 13.8008 10.1085 13.8212 10.0345C13.8425 9.95777 13.8704 9.89456 13.9049 9.84488C13.9404 9.79693 13.9813 9.7563 14.0289 9.72334L14.168 9.8691C14.1324 9.89055 14.1026 9.91794 14.0795 9.95301C14.0551 9.98772 14.0364 10.0284 14.0239 10.0736C14.0106 10.1216 14.0058 10.1659 14.009 10.2079C14.0125 10.2486 14.0241 10.287 14.0432 10.32C14.0636 10.3533 14.0897 10.3823 14.1232 10.4059C14.1567 10.4295 14.1976 10.4477 14.2445 10.4602C14.3081 10.477 14.3667 10.4794 14.4191 10.4668C14.4719 10.4529 14.5163 10.4264 14.5537 10.3878C14.59 10.3474 14.618 10.2945 14.6355 10.2315C14.648 10.1862 14.6532 10.1406 14.6515 10.093C14.6495 10.0469 14.6388 9.99992 14.619 9.95349L14.8161 9.90575C14.8395 9.9605 14.8523 10.0213 14.8563 10.0871C14.8603 10.1529 14.8507 10.2253 14.8286 10.3048Z" fill="black"/>
<path fill-rule="evenodd" clip-rule="evenodd" d="M7.99999 0.723511C12.4153 0.723511 16 4.30821 16 8.72353C16 13.1389 12.4153 16.7235 7.99999 16.7235C3.58468 16.7235 0 13.1389 0 8.72353C0 4.30821 3.58468 0.723511 7.99999 0.723511ZM7.99999 0.97157C3.7216 0.97157 0.248071 4.44511 0.248071 8.72353C0.248071 13.002 3.7216 16.4755 7.99999 16.4755C12.2784 16.4755 15.7519 13.002 15.7519 8.72353C15.7519 4.44511 12.2784 0.97157 7.99999 0.97157Z" fill="#F9C79B"/>
<path fill-rule="evenodd" clip-rule="evenodd" d="M0.546875 8.62878H1.9713V8.8129H0.546875V8.62878Z" fill="#F9C79B"/>
<path fill-rule="evenodd" clip-rule="evenodd" d="M14.0273 8.63403H15.4518V8.81815H14.0273V8.63403Z" fill="#F9C79B"/>
<defs>
<linearGradient id="paint0_linear_2339_15418" x1="13.0077" y1="2.33592" x2="2.81389" y2="14.9251" gradientUnits="userSpaceOnUse">
<stop stop-color="#FFC6A5"/>
<stop offset="0.5" stop-color="#FFFAC9"/>
<stop offset="1" stop-color="#FFC6A5"/>
</linearGradient>
</defs>
</svg>
