<svg width="1032" height="1032" viewBox="0 0 1032 1032" fill="none" xmlns="http://www.w3.org/2000/svg">
<path d="M1032 516C1032 800.979 800.979 1032 516 1032C231.021 1032 0.000244141 800.979 0.000244141 516C0.000244141 231.021 231.021 -0.000244141 516 -0.000244141C800.979 -0.000244141 1032 231.021 1032 516Z" fill="url(#paint0_linear_1_801)"/>
<path fill-rule="evenodd" clip-rule="evenodd" d="M538.697 243.331C536.197 241.966 550.316 249.045 575.082 271.479C628.156 319.557 620.271 397.472 590.151 398.444C536.275 400.182 536.104 392.673 478.211 401.356C467.287 402.996 433.057 393.843 391.653 430.071C356.89 460.487 357.969 529.324 376.89 576.456C384.811 596.188 395.86 612.117 408.715 619.829C452.073 645.844 456.769 621.943 506.508 630.233C509.754 630.774 556.658 633.706 561.021 633.979C577.784 635.026 598.555 624.072 612.623 624.406C678.331 625.972 703.984 583.062 726.228 520.372C735.466 494.34 733.183 493.982 736.216 466.69C737.937 451.201 747.04 451.578 740.378 437.145C728.249 410.867 738.925 394.706 722.9 362.655C711.281 339.42 710.858 300.988 702.509 293.161C647.963 242.024 622.555 238.848 614.287 237.814C590.413 234.83 547.539 237.033 538.697 243.331Z" fill="black"/>
<path fill-rule="evenodd" clip-rule="evenodd" d="M453.721 620.704C418.432 597.815 397.057 564.727 402.448 514.582C407.174 470.623 437.795 439.548 480.615 432.839C515.359 427.397 531.414 433.423 573.245 422.144C619.199 409.752 631.084 370.274 628.597 335.783C625.724 295.951 601.352 256.904 551.827 243.872C531.775 218.555 465.084 212.374 449.51 232.085C443.465 239.735 384.574 267.733 360.05 300.855C352.297 311.325 334.912 334.807 325.528 460.002C313.217 624.231 439.783 618.778 453.721 620.704Z" fill="white"/>
<path d="M612.032 743.623C616.112 727.323 637.076 674.872 652.396 646.441C638.669 652.18 442.282 706.265 340.785 613.647C291.243 568.439 289.268 511.895 287.667 479.595C256.812 479.864 240.488 486.546 228.902 488.813C216.864 491.167 211.28 487.205 206.322 475.083C201.328 462.87 194.348 441.936 189.702 429.816C186.845 422.363 187.036 418.425 189.518 416.291C192.63 413.616 197.956 417.391 206.374 420.154C232.018 428.567 253.207 431.848 289.972 428.914C296.181 369.937 297.864 341.705 298.258 334.268C298.533 329.091 298.471 321.497 296.433 312.659C294.513 304.337 291.312 295.673 289.293 291.382C287.047 286.607 286.326 283.599 288.022 281.743C290.036 279.541 292.931 279.638 299.805 283.343C312.455 290.161 327.363 303.346 337.093 314.021C339.997 317.208 342.597 320.847 343.292 326.168C343.952 331.213 342.657 335.497 341.779 342.136C338.739 365.123 331.161 415.551 329.567 463.92C328.428 498.508 338.576 544.023 363.192 573.439C391.934 607.786 434.08 619.162 486.114 624.912C545.31 631.454 627.777 617.708 675.191 591.781C688.267 558.432 717.402 497.075 713.282 420.015C707.98 320.832 652.335 262.065 577.993 248.398C513.101 236.467 442.869 254.846 411.198 268.721C376.08 284.106 363.912 295.369 353.582 296.536C341.147 297.941 309.725 278.581 300.181 267.083C297.973 264.424 296.778 261.833 297.776 259.777C298.892 257.477 300.737 257.361 306.805 257.596C313.131 257.839 321.994 257.132 330.118 255.498C342.007 253.106 354.922 248.34 358.9 246.521C397.164 229.017 489.482 192.132 586.527 211.454C708.119 235.664 748.015 332.828 752.909 425.013C781.685 426.061 803.176 417.113 818.125 417.211C833.037 417.309 836.681 420.528 841.826 454.168C842.801 460.541 843.971 469.43 844.235 477.256C844.542 486.361 844.763 492.095 841.173 493.777C837.658 495.425 832.59 492.51 826.181 488.936C812.875 481.516 790.65 469.646 754.711 470.658C751.306 502.318 744.647 534.94 731.709 573.596C761.843 560.189 779.062 553.791 796.381 552.822C811.332 551.986 818.044 561.09 825.341 579.033C830.255 591.119 834.078 604.87 835.438 613.847C836.446 620.502 836.272 623.094 832.997 625.027C828.801 627.504 822.254 622.599 811.748 619.536C775.357 608.927 736.489 615.029 711.517 631.293C669.955 708.712 657.214 774.234 649.814 805.507C646.916 817.755 646.677 822.555 643.38 824.892C640.182 827.157 631.436 825.526 621.031 823.789C615.562 822.875 606.516 820.747 601.667 819.049C597.081 817.442 592.982 815.604 590.543 812.54C588.259 809.669 587.807 806.221 586.454 802.742C573.764 770.119 567.339 717.504 489.413 694.128C476.601 690.285 464.065 692.131 474.221 683.306C493.694 666.385 579.54 685.296 612.032 743.623Z" fill="black"/>
<path d="M514.497 376.722C493.722 376.747 476.704 359.804 476.653 339.029C476.603 318.179 493.459 301.173 514.246 301.123C535.222 301.061 552.265 318.029 552.24 338.954C552.227 359.754 535.284 376.697 514.484 376.735L514.497 376.722Z" fill="black"/>
<path d="M514.353 491.3C535.829 491.25 553.11 508.431 553.11 529.87C553.11 551.246 535.766 568.627 514.428 568.602C493.215 568.577 475.858 551.284 475.783 530.095C475.708 508.657 492.927 491.35 514.353 491.3Z" fill="white"/>
<path d="M127.626 452.686L47.8695 426.325L53.2548 410.032L114.656 395.949L112.586 402.596L71.1052 356.025L76.4528 339.846L156.209 366.207L150.786 382.614L92.8673 363.218L95.0235 360.518L128.096 398.496L124.292 410.004L74.8382 421.589L74.6403 418.364L132.748 437.191L127.626 452.686Z" fill="black"/>
<path d="M184.256 324.052C180.154 330.545 175.374 335.19 169.916 337.987C164.623 340.747 158.856 341.787 152.881 341.134C146.841 340.583 140.962 338.43 135.18 334.776L92.8768 308.047L102.364 293.033L145.072 320.018C150.348 323.352 155.137 324.533 159.441 323.562C163.644 322.526 167.271 319.708 170.155 315.143C173.104 310.476 174.028 306.092 173.159 301.852C172.188 297.548 169.065 293.729 163.789 290.396L121.081 263.41L130.631 248.295L172.934 275.024C178.653 278.779 183.121 283.164 186.276 288.281C189.431 293.397 190.866 298.988 190.748 305.017C190.565 311.147 188.422 317.458 184.256 324.052Z" fill="black"/>
<path d="M220.838 268.957L188.118 185.311L203.165 171.714L283.432 212.4L268.562 225.835L251.598 216.904L227.914 238.304L235.262 255.924L220.838 268.957ZM220.974 224.359L238.425 208.59L208.452 193.138L220.974 224.359Z" fill="black"/>
<path d="M322.251 192.078C314.707 196.529 307.177 198.882 299.663 199.134C292.211 199.491 285.248 197.607 278.751 193.917C272.194 190.122 266.741 184.422 262.229 176.774C258.997 171.296 256.94 165.683 256.056 159.935C255.173 154.186 255.44 148.734 256.838 143.311C258.237 137.889 260.743 132.927 264.297 128.322C267.85 123.718 272.366 119.8 277.947 116.508C283.734 113.093 289.122 110.89 294.11 109.898C299.056 109.07 303.892 109.003 308.682 109.8L308.412 126.818C305.022 126.031 301.626 125.944 298.184 126.722C294.68 127.395 291.171 128.769 287.761 130.781C284.143 132.915 281.244 135.322 278.96 138.063C276.779 140.743 275.213 143.756 274.408 146.879C273.664 150.104 273.516 153.396 274.129 156.796C274.741 160.197 276.115 163.706 278.188 167.22C280.993 171.974 284.362 175.559 288.234 177.872C292.21 180.125 296.422 181.123 300.93 180.971C305.481 180.655 310.267 179.085 315.021 176.281C318.432 174.268 321.435 171.801 324.132 168.816C326.726 165.892 328.851 162.409 330.404 158.428L344.993 167.098C343.167 171.797 340.356 176.242 336.723 180.475C333.09 184.709 328.246 188.542 322.251 192.078Z" fill="black"/>
<path d="M391.123 161.256C383.843 163.703 377.204 164.288 371.205 163.013C365.358 161.813 360.228 158.98 356.005 154.703C351.669 150.463 348.468 145.083 346.289 138.599L330.346 91.1665L347.181 85.5083L363.276 133.396C365.264 139.311 368.234 143.25 372.185 145.213C376.098 147.063 380.69 147.165 385.809 145.445C391.041 143.686 394.526 140.869 396.527 137.032C398.491 133.08 398.478 128.147 396.49 122.232L380.395 74.3448L397.343 68.6483L413.286 116.081C415.351 122.603 416.05 128.824 415.268 134.784C414.486 140.744 412.07 145.987 408.173 150.588C404.162 155.228 398.517 158.771 391.123 161.256Z" fill="black"/>
<path d="M439.874 145.143L430.551 61.662L462.99 58.0396C469.072 57.3604 474.678 57.8211 479.569 59.4484C484.579 61.0623 488.622 63.7502 491.804 67.3795C495 71.128 496.858 75.8711 497.484 81.4762C498.123 87.2007 497.357 92.2368 495.425 96.5579C493.36 100.773 490.009 104.287 485.465 106.847C480.935 109.526 475.33 111.239 468.532 111.998L454.221 113.596L457.524 143.172L439.874 145.143ZM452.557 98.6886L466.629 97.1171C471.161 96.6111 474.632 95.2575 477.056 93.1756C479.347 90.9878 480.326 87.8598 479.874 83.805C479.421 79.7502 477.763 76.796 474.926 75.1808C472.076 73.4464 468.511 72.8786 464.098 73.3713L449.906 74.9561L452.557 98.6886Z" fill="black"/>
<path d="M548.619 142.262C540.965 141.63 534.635 139.542 529.63 135.998C524.734 132.584 521.143 127.953 518.956 122.354C516.65 116.745 515.838 110.537 516.401 103.72L520.518 53.8501L538.218 55.3114L534.061 105.66C533.548 111.879 534.717 116.671 537.57 120.038C540.433 123.284 544.61 125.194 549.991 125.639C555.493 126.093 559.807 124.884 563.163 122.15C566.529 119.298 568.469 114.762 568.982 108.543L573.139 58.1944L590.958 59.6655L586.841 109.536C586.159 116.343 584.34 122.333 581.264 127.498C578.189 132.662 573.897 136.522 568.498 139.207C562.979 141.882 556.393 142.904 548.619 142.262Z" fill="black"/>
<path d="M599.641 146.343L624.796 66.198L641.397 71.4086L660.539 134.643L676.89 82.5486L693.377 87.7233L668.222 167.868L651.621 162.658L632.73 98.6221L616.128 151.518L599.641 146.343Z" fill="black"/>
<path d="M715.984 195.711C708.389 191.346 702.628 185.958 698.7 179.548C694.712 173.242 692.914 166.256 692.918 158.784C692.982 151.209 695.248 143.653 699.674 135.954C702.843 130.44 706.71 125.881 711.273 122.275C715.837 118.67 720.71 116.212 726.117 114.752C731.524 113.292 737.076 113.023 742.834 113.841C748.592 114.66 754.229 116.654 759.847 119.883C765.673 123.232 770.248 126.83 773.572 130.679C776.733 134.572 779.178 138.745 780.848 143.304L765.914 151.468C764.925 148.131 763.325 145.135 760.95 142.525C758.635 139.81 755.709 137.436 752.276 135.462C748.634 133.369 745.11 132.036 741.599 131.402C738.192 130.827 734.798 130.953 731.685 131.793C728.513 132.738 725.577 134.234 722.922 136.445C720.267 138.656 717.893 141.582 715.859 145.119C713.109 149.905 711.653 154.605 711.552 159.114C711.555 163.684 712.765 167.84 715.122 171.686C717.643 175.488 721.37 178.876 726.156 181.627C729.589 183.6 733.218 184.993 737.145 185.867C740.968 186.68 745.046 186.81 749.275 186.195L748.934 203.162C743.946 203.894 738.692 203.642 733.218 202.572C727.743 201.501 722.018 199.18 715.984 195.711Z" fill="black"/>
<path d="M763.774 226.776L807.632 175.072L790.244 160.323L800.724 147.969L849.042 188.955L838.563 201.309L821.175 186.56L777.318 238.265L763.774 226.776Z" fill="black"/>
<path d="M822.012 287.988C817.207 281.996 814.371 275.965 813.502 269.894C812.614 263.991 813.507 258.199 816.069 252.762C818.555 247.23 822.504 242.372 827.84 238.093L866.879 206.789L877.99 220.645L838.576 252.249C833.708 256.153 831.032 260.297 830.55 264.683C830.161 268.994 831.647 273.34 835.025 277.553C838.478 281.86 842.323 284.16 846.615 284.718C851.001 285.2 855.628 283.489 860.496 279.586L899.91 247.982L911.095 261.931L872.056 293.235C866.645 297.42 861.044 300.219 855.18 301.537C849.315 302.856 843.561 302.394 837.899 300.32C832.162 298.153 826.891 294.073 822.012 287.988Z" fill="black"/>
<path d="M854.109 328.124L929.381 290.838L944.188 320.732C946.905 326.216 948.388 331.373 948.584 336.365C948.727 341.249 947.744 345.754 945.369 349.609C943.046 353.571 939.493 356.671 934.761 359.014C931.105 360.825 927.506 361.671 923.911 361.711C920.369 361.59 916.991 360.719 913.885 359.044C910.779 357.369 907.943 355.158 905.431 352.25L884.257 388.986L874.882 370.061L894.484 337.72L890.595 329.87L861.992 344.038L854.109 328.124ZM903.392 323.531L909.251 335.36C911.275 339.446 913.733 342.246 916.625 343.759C919.357 345.218 922.524 345.123 925.965 343.418C929.406 341.714 931.561 339.307 932.216 336.304C932.872 333.301 932.187 329.757 930.163 325.671L924.038 313.305L903.392 323.531Z" fill="black"/>
<path d="M887.629 399.051L968.533 376.459L983.993 431.821L969.083 435.984L958.4 397.728L941.064 402.569L950.133 435.046L936.379 438.887L927.31 406.41L907.43 411.961L918.242 450.68L903.217 454.875L887.629 399.051Z" fill="black"/>
<path d="M73.8639 615.25C72.9788 611.022 73.0376 607.086 74.0404 603.443C75.063 599.895 76.7673 596.792 79.3064 594.397C81.8258 591.907 84.9178 590.279 88.6763 589.493C91.3073 588.942 93.8684 588.994 96.3595 589.65C98.9446 590.285 101.44 591.43 103.772 593.198C106.104 594.966 108.232 597.168 110.177 599.9C111.514 597.854 112.93 596.185 114.217 594.836C115.504 593.488 116.87 592.516 118.275 591.731C119.68 590.947 121.144 590.444 122.835 590.09C125.936 589.441 128.932 589.696 131.823 590.856C134.601 591.942 137.14 593.765 139.159 596.383C141.253 598.887 142.653 601.83 143.401 605.401C144.129 608.877 144.14 612.21 143.395 615.21C142.576 618.324 141.262 620.953 139.154 623.062C137.159 625.245 134.611 626.661 131.51 627.31C128.127 628.018 124.885 627.52 121.594 625.855C118.397 624.17 115.171 621.413 111.991 617.469L102.532 631.317C105.141 632.536 107.825 633.642 110.845 634.481C113.771 635.339 117.241 635.986 121.275 636.514L119.289 648.111C116.877 647.832 114.217 647.31 111.405 646.525C108.686 645.721 105.929 644.729 103.265 643.718C100.581 642.612 98.1798 641.447 96.0601 640.224L84.0662 656.956L80.8402 641.547L86.1936 633.854C83.0468 631.473 80.4048 628.691 78.2479 625.415C76.0909 622.14 74.5918 618.727 73.8639 615.25ZM85.2619 613.943C85.6946 616.01 86.6169 618.073 87.8756 619.869C89.1541 621.759 90.769 623.383 92.7401 624.834L103.928 608.466C102.324 605.957 100.368 604.111 98.2677 602.981C96.1677 601.852 93.9432 601.533 91.782 601.985C89.1511 602.536 87.2806 603.908 86.057 606.028C84.853 608.242 84.6128 610.842 85.2619 613.943ZM117.153 609.326C118.89 612.003 120.658 613.889 122.456 614.984C124.368 616.153 126.197 616.456 128.077 616.063C130.144 615.63 131.603 614.638 132.55 613.067C133.496 611.496 133.799 609.667 133.347 607.505C132.914 605.438 131.902 603.885 130.48 602.711C128.983 601.651 127.248 601.328 125.275 601.741C123.771 602.056 122.44 602.727 121.134 603.981C119.901 605.122 118.525 606.979 117.153 609.326Z" fill="black"/>
<path d="M116.208 737.314L163.648 685.55L171.184 698.269L137.703 732.724L184.494 720.734L191.785 733.04L158.745 768.238L205.096 755.505L212.387 767.811L144.248 784.639L136.957 772.333L169.847 737.446L123.451 749.537L116.208 737.314Z" fill="black"/>
<path d="M176.792 826.593L225.255 780.04L257.111 813.202L248.18 821.781L226.167 798.865L215.782 808.841L234.469 828.295L226.231 836.209L207.543 816.755L195.635 828.194L217.914 851.386L208.914 860.032L176.792 826.593Z" fill="black"/>
<path d="M235.704 883.154L275.249 828.821L286.736 837.182L254.818 881.036L277.25 897.363L269.623 907.841L235.704 883.154Z" fill="black"/>
<path d="M297.646 924.878L327.634 864.741L340.349 871.081L316.144 919.621L340.972 932.002L335.189 943.599L297.646 924.878Z" fill="black"/>
<path d="M365.727 956.222L384.103 891.583L397.492 895.39L414.174 945.542L426.118 903.527L439.415 907.307L421.04 971.946L407.65 968.14L391.152 917.341L379.024 960.002L365.727 956.222Z" fill="black"/>
<path d="M459.152 978.116L464.151 911.103L510.007 914.523L509.086 926.873L477.398 924.509L476.327 938.869L503.228 940.876L502.378 952.268L475.477 950.262L474.249 966.728L506.32 969.12L505.391 981.566L459.152 978.116Z" fill="black"/>
<path d="M564.083 979.994C559.214 980.513 554.36 980.257 549.53 979.323C544.7 978.39 540.573 976.802 537.032 974.379L542.682 963.061C544.266 964.341 546.212 965.388 548.519 966.205C550.731 967.031 553.114 967.646 555.657 967.955C558.104 968.274 560.521 968.306 562.908 968.052C566.535 967.665 569.423 966.682 571.582 965.197C573.635 963.627 574.578 961.596 574.324 959.209C574.11 957.205 573.174 955.663 571.408 954.5C569.643 953.336 566.552 952.41 562.124 951.626L555.832 950.559C548.956 949.456 543.813 947.397 540.509 944.467C537.214 941.632 535.27 937.88 534.782 933.298C534.467 930.339 534.84 927.5 535.817 924.885C536.794 922.271 538.288 919.988 540.376 917.835C542.379 915.788 544.909 914.167 547.852 912.791C550.805 911.511 554.095 910.678 557.723 910.292C562.591 909.774 567.149 909.964 571.502 910.949C575.855 911.934 579.494 913.477 582.326 915.589L576.455 926.641C575.082 925.532 573.433 924.549 571.527 923.883C569.612 923.121 567.622 922.561 565.471 922.307C563.31 921.958 561.083 921.906 558.983 922.129C556.692 922.373 554.728 922.968 553.071 923.724C551.424 924.575 550.179 925.577 549.346 926.824C548.418 928.081 548.093 929.564 548.266 931.187C548.398 932.428 548.892 933.437 549.652 934.225C550.411 935.013 551.744 935.74 553.448 936.331C555.152 936.922 557.524 937.442 560.48 937.996L566.983 939.234C573.773 940.442 578.811 942.416 582.18 945.05C585.455 947.694 587.399 951.445 587.907 956.218C588.344 960.323 587.691 964.158 585.926 967.532C584.161 970.905 581.371 973.713 577.735 975.838C574.014 978.068 569.524 979.415 564.083 979.994Z" fill="black"/>
<path d="M645.201 963.655C640.511 965.062 635.693 965.705 630.774 965.677C625.854 965.648 621.505 964.848 617.579 963.119L621.047 950.954C622.84 951.92 624.945 952.591 627.364 952.969C629.69 953.373 632.145 953.539 634.701 953.374C637.166 953.236 639.547 952.823 641.846 952.134C645.34 951.086 647.998 949.587 649.846 947.73C651.575 945.809 652.127 943.639 651.438 941.34C650.859 939.409 649.654 938.066 647.705 937.247C645.756 936.429 642.547 936.088 638.05 936.134L631.669 936.243C624.708 936.426 619.274 935.35 615.486 933.078C611.725 930.898 609.124 927.569 607.8 923.156C606.945 920.305 606.789 917.445 607.268 914.696C607.746 911.947 608.795 909.428 610.45 906.927C612.041 904.545 614.23 902.486 616.869 900.592C619.536 898.79 622.617 897.365 626.111 896.317C630.8 894.911 635.315 894.259 639.775 894.425C644.235 894.591 648.096 895.437 651.269 896.992L647.534 908.936C645.98 908.099 644.178 907.436 642.183 907.133C640.16 906.737 638.1 906.553 635.939 906.7C633.751 906.755 631.553 907.113 629.53 907.72C627.323 908.382 625.502 909.328 624.013 910.376C622.55 911.516 621.511 912.73 620.923 914.109C620.242 915.516 620.196 917.033 620.665 918.596C621.023 919.792 621.694 920.693 622.586 921.328C623.478 921.962 624.921 922.431 626.705 922.698C628.489 922.965 630.917 923.039 633.923 923.039L640.544 923.058C647.44 922.995 652.755 924.007 656.552 925.975C660.258 927.971 662.859 931.3 664.238 935.898C665.424 939.852 665.488 943.741 664.375 947.382C663.262 951.024 661.036 954.297 657.854 957.055C654.608 959.933 650.442 962.084 645.201 963.655Z" fill="black"/>
<path d="M762.174 909.144C756.275 912.927 750.326 915.032 744.327 915.458C738.379 915.966 732.757 914.668 727.453 911.911C722.098 909.073 717.569 904.679 713.733 898.699C710.987 894.416 709.174 889.99 708.297 885.421C707.419 880.851 707.47 876.485 708.426 872.108C709.382 867.731 711.238 863.69 713.942 859.903C716.645 856.116 720.138 852.849 724.502 850.051C729.027 847.148 733.269 845.226 737.227 844.285C741.155 843.475 745.02 843.278 748.873 843.772L749.164 857.385C746.431 856.857 743.714 856.889 740.985 857.613C738.204 858.256 735.44 859.458 732.773 861.169C729.945 862.983 727.699 864.993 725.955 867.253C724.291 869.46 723.129 871.916 722.578 874.436C722.08 877.037 722.06 879.673 722.651 882.373C723.242 885.073 724.445 887.837 726.207 890.585C728.591 894.302 731.391 897.068 734.556 898.802C737.802 900.483 741.198 901.156 744.798 900.9C748.426 900.512 752.206 899.114 755.923 896.73C758.59 895.02 760.917 892.957 762.984 890.491C764.971 888.076 766.566 885.228 767.688 882L779.61 888.495C778.291 892.307 776.176 895.944 773.398 899.437C770.619 902.929 766.861 906.138 762.174 909.144Z" fill="black"/>
<path d="M807.864 873.558L761.783 824.647L772.124 814.904L809.318 854.382L829.512 835.357L838.399 844.79L807.864 873.558Z" fill="black"/>
<path d="M816.164 767.496L807.201 778.521L859.344 820.911L868.307 809.886L816.164 767.496Z" fill="black"/>
<path d="M891.087 779.789L832.738 746.455L839.643 734.369L892.332 730.195L854.405 708.528L861.262 696.525L919.612 729.859L912.707 741.945L859.434 745.786L897.945 767.786L891.087 779.789Z" fill="black"/>
<path d="M875.838 658.352L870.908 671.678L933.933 694.993L938.863 681.668L875.838 658.352Z" fill="black"/>
<path d="M957.924 615.861C956.566 622.736 953.963 628.485 950.114 633.106C946.36 637.747 941.529 640.903 935.867 642.818C930.11 644.714 923.804 644.936 916.834 643.56C911.843 642.574 907.395 640.815 903.492 638.282C899.589 635.75 896.475 632.689 893.981 628.967C891.487 625.245 889.858 621.107 889 616.534C888.141 611.961 888.205 607.179 889.21 602.093C890.251 596.819 891.804 592.429 893.866 588.922C896.004 585.528 898.539 582.604 901.564 580.168L911.584 589.388C909.309 590.994 907.45 592.975 906.082 595.444C904.619 597.895 903.572 600.722 902.958 603.83C902.307 607.126 902.201 610.139 902.622 612.962C903.061 615.691 904.028 618.23 905.464 620.373C906.994 622.535 908.881 624.375 911.238 625.819C913.595 627.263 916.421 628.311 919.623 628.943C923.956 629.799 927.89 629.695 931.333 628.614C934.794 627.438 937.633 625.455 939.942 622.682C942.175 619.796 943.786 616.102 944.641 611.77C945.255 608.662 945.379 605.555 945.033 602.355C944.668 599.249 943.719 596.126 942.168 593.08L955.111 588.982C956.946 592.574 958.104 596.619 958.698 601.042C959.292 605.465 959.003 610.398 957.924 615.861Z" fill="black"/>
<path d="M516 0.444558C800.542 0.444558 1031.56 231.458 1031.56 515.999C1031.56 800.542 800.542 1031.55 516 1031.55C231.457 1031.55 0.443947 800.542 0.443947 515.999C0.443947 231.458 231.457 0.444558 516 0.444558ZM516 15.5557C239.797 15.5557 15.5559 239.797 15.5559 515.999C15.5559 792.203 239.797 1016.44 516 1016.44C792.203 1016.44 1016.44 792.203 1016.44 515.999C1016.44 239.797 792.203 15.5557 516 15.5557Z" fill="#F9C79B" stroke="#F9C79B" stroke-width="0.888627"/>
<path fill-rule="evenodd" clip-rule="evenodd" d="M41.2433 515.83H121.243Z" fill="#F9C79B"/>
<path d="M41.2433 515.83H121.243" stroke="#F9C79B" stroke-width="11.8757" stroke-miterlimit="1.5" stroke-linecap="square" stroke-linejoin="round"/>
<path fill-rule="evenodd" clip-rule="evenodd" d="M910.757 516.17H990.757Z" fill="#F9C79B"/>
<path d="M910.757 516.17H990.757" stroke="#F9C79B" stroke-width="11.8757" stroke-miterlimit="1.5" stroke-linecap="square" stroke-linejoin="round"/>
<defs>
<linearGradient id="paint0_linear_1_801" x1="839" y1="104" x2="181.5" y2="916" gradientUnits="userSpaceOnUse">
<stop stop-color="#FFC6A5"/>
<stop offset="0.5" stop-color="#FFFAC9"/>
<stop offset="1" stop-color="#FFC6A5"/>
</linearGradient>
</defs>
</svg>
